# xmcd
#
# Track frame offsets:
#	150
#	22354
#	52536
#	71100
#	93307
#	118675
#	138724
#	161178
#	185547
#	203296
#	225812
#	245964
#	265177
#	286803
#	310729
#	332344
#	343123
#
# Disc length: 4799 seconds
#
# Revision: 3
# Processed by: cddbd v1.5.1PL2 Copyright (c) Steve Scherf et al.
# Submitted via: audiograbber 1.83.01
#
DISCID=f212bd11
DTITLE=George Michael - MTV history 2000 CD 1
DYEAR=1900
DGENRE=Pop
TTITLE0=Careless Whisper
TTITLE1=Jesus To A Child
TTITLE2=The Strangest Thing
TTITLE3=They Won't Go When I Go
TTITLE4=Father Figure
TTITLE5=Heal The Pain
TTITLE6=Fastlove
TTITLE7=You Have Been Loved
TTITLE8=Mother's Pride
TTITLE9=Fantasy
TTITLE10=Kissing A Fool
TTITLE11=Spinning The Wheel
TTITLE12=Waiting For That Day
TTITLE13=I Can't Make You Love Me
TTITLE14=A Moment With You
TTITLE15=Waiting (Reprise)
TTITLE16=Too Funky
EXTD=
EXTT0=
EXTT1=
EXTT2=
EXTT3=
EXTT4=
EXTT5=
EXTT6=
EXTT7=
EXTT8=
EXTT9=
EXTT10=
EXTT11=
EXTT12=
EXTT13=
EXTT14=
EXTT15=
EXTT16=
PLAYORDER=
